<?xml version="1.0" encoding="UTF-8"?>
<svg xmlns="http://www.w3.org/2000/svg" width="1200" height="630" viewBox="0 0 1200 630">
  <defs>
    <linearGradient id="og-bg" x1="0" y1="0" x2="0.4" y2="1">
      <stop offset="0%" stop-color="#FFFFFF"/>
      <stop offset="100%" stop-color="#F3F2FA"/>
    </linearGradient>
    <linearGradient id="og-grad" x1="0" y1="0" x2="1" y2="1">
      <stop offset="0%" stop-color="#6A4DF5"/>
      <stop offset="100%" stop-color="#4A3ACB"/>
    </linearGradient>
  </defs>

  <!-- Background -->
  <rect width="1200" height="630" fill="url(#og-bg)" rx="0"/>

  <!-- Subtle grid lines -->
  <line x1="0" y1="0" x2="0" y2="630" stroke="#E7E5F1" stroke-width="0.5" opacity="0.5"/>
  <line x1="100" y1="0" x2="100" y2="630" stroke="#E7E5F1" stroke-width="0.5" opacity="0.5"/>
  <line x1="200" y1="0" x2="200" y2="630" stroke="#E7E5F1" stroke-width="0.5" opacity="0.5"/>
  <line x1="300" y1="0" x2="300" y2="630" stroke="#E7E5F1" stroke-width="0.5" opacity="0.5"/>
  <line x1="400" y1="0" x2="400" y2="630" stroke="#E7E5F1" stroke-width="0.5" opacity="0.5"/>
  <line x1="500" y1="0" x2="500" y2="630" stroke="#E7E5F1" stroke-width="0.5" opacity="0.5"/>
  <line x1="600" y1="0" x2="600" y2="630" stroke="#E7E5F1" stroke-width="0.5" opacity="0.5"/>
  <line x1="700" y1="0" x2="700" y2="630" stroke="#E7E5F1" stroke-width="0.5" opacity="0.5"/>
  <line x1="800" y1="0" x2="800" y2="630" stroke="#E7E5F1" stroke-width="0.5" opacity="0.5"/>
  <line x1="900" y1="0" x2="900" y2="630" stroke="#E7E5F1" stroke-width="0.5" opacity="0.5"/>
  <line x1="1000" y1="0" x2="1000" y2="630" stroke="#E7E5F1" stroke-width="0.5" opacity="0.5"/>
  <line x1="1100" y1="0" x2="1100" y2="630" stroke="#E7E5F1" stroke-width="0.5" opacity="0.5"/>
  <line x1="1200" y1="0" x2="1200" y2="630" stroke="#E7E5F1" stroke-width="0.5" opacity="0.5"/>
  <line x1="0" y1="0" x2="1200" y2="0" stroke="#E7E5F1" stroke-width="0.5" opacity="0.5"/>
  <line x1="0" y1="105" x2="1200" y2="105" stroke="#E7E5F1" stroke-width="0.5" opacity="0.5"/>
  <line x1="0" y1="210" x2="1200" y2="210" stroke="#E7E5F1" stroke-width="0.5" opacity="0.5"/>
  <line x1="0" y1="315" x2="1200" y2="315" stroke="#E7E5F1" stroke-width="0.5" opacity="0.5"/>
  <line x1="0" y1="420" x2="1200" y2="420" stroke="#E7E5F1" stroke-width="0.5" opacity="0.5"/>
  <line x1="0" y1="525" x2="1200" y2="525" stroke="#E7E5F1" stroke-width="0.5" opacity="0.5"/>
  <line x1="0" y1="630" x2="1200" y2="630" stroke="#E7E5F1" stroke-width="0.5" opacity="0.5"/>

  <!-- Logo mark -->
  <g transform="translate(100, 190) scale(0.5)">
    <rect x="56" y="56" width="400" height="400" rx="96" ry="96"
      fill="none" stroke="url(#og-grad)" stroke-width="20"/>
    <path d="M150 168 L246 256 L150 344" fill="none"
      stroke="url(#og-grad)" stroke-width="28" stroke-linecap="round" stroke-linejoin="round"/>
    <path d="M362 168 L266 256 L362 344" fill="none"
      stroke="#C9B8FF" stroke-width="28" stroke-linecap="round" stroke-linejoin="round"/>
    <circle cx="256" cy="256" r="14" fill="url(#og-grad)"/>
  </g>

  <!-- Title -->
  <text x="380" y="290" font-family="-apple-system, BlinkMacSystemFont, 'Segoe UI', Roboto, Helvetica, Arial, sans-serif"
    font-size="48" font-weight="800" letter-spacing="-0.02em" fill="#1a1a2e">
    RivalMetrics
  </text>

  <!-- Tagline -->
  <text x="380" y="340" font-family="-apple-system, BlinkMacSystemFont, 'Segoe UI', Roboto, Helvetica, Arial, sans-serif"
    font-size="24" font-weight="500" fill="#5b5870">
    Global Rivalry Analytics
  </text>

  <!-- Brand bar -->
  <rect x="100" y="540" width="1000" height="2" fill="url(#og-grad)" rx="1" opacity="0.3"/>

  <!-- Footer -->
  <text x="600" y="575" font-family="-apple-system, BlinkMacSystemFont, 'Segoe UI', Roboto, Helvetica, Arial, sans-serif"
    font-size="16" font-weight="600" fill="#8a87a0" text-anchor="middle">
    A FrostByte Project
  </text>
</svg>